<svg xmlns="http://www.w3.org/2000/svg" width="20" height="20" viewBox="0 0 20 20">
    <g fill="none" fill-rule="evenodd">
        <circle cx="9" cy="9" r="9" stroke="#999" stroke-linecap="round" stroke-linejoin="round" transform="translate(1 1)"/>
        <g fill="#999" fill-rule="nonzero">
            <path d="M13.273 12.455h-1.964a.492.492 0 0 1 0-.982h1.964c.812 0 1.472-.661 1.472-1.473s-.66-1.473-1.472-1.473h-1.964a.492.492 0 0 1 0-.982h1.964A2.457 2.457 0 0 1 15.727 10c0 1.353-1.1 2.455-2.454 2.455zM8.69 12.455H6.728A2.457 2.457 0 0 1 4.273 10c0-1.353 1.1-2.455 2.454-2.455h1.964a.492.492 0 0 1 0 .982H6.727c-.812 0-1.472.661-1.472 1.473s.66 1.473 1.472 1.473h1.964a.492.492 0 0 1 0 .982z"/>
            <path d="M12.795 10.818H8.023c-.263 0-.478-.366-.478-.818 0-.452.215-.818.478-.818h4.772c.263 0 .478.366.478.818 0 .452-.215.818-.478.818z"/>
        </g>
    </g>
</svg>
