<svg xmlns="http://www.w3.org/2000/svg" width="20" height="20" viewBox="0 0 20 20">
    <g fill="none" fill-rule="evenodd" transform="translate(1 1)">
        <circle cx="9" cy="9" r="9" stroke="#999" stroke-linecap="round" stroke-linejoin="round"/>
        <g fill="#999" fill-rule="nonzero">
            <path d="M6.197 13.91h-.939c-.191 0-.349-.421-.349-.93V9.93c0-.509.158-.929.349-.929h.939c.19 0 .348.42.348.929v3.051c-.008.509-.157.93-.348.93zM9.47 13.91h-.94c-.19 0-.348-.384-.348-.847V8.21c0-.464.158-.846.349-.846h.938c.191 0 .35.382.35.846v4.853c0 .463-.159.846-.35.846zM12.742 13.91h-.939c-.19 0-.348-.403-.348-.89V4.98c0-.487.157-.89.348-.89h.939c.191 0 .349.403.349.89v8.04c-.008.487-.158.89-.349.89z"/>
        </g>
    </g>
</svg>
